<svg style="position: absolute; width: 0; height: 0; overflow: hidden;" version="1.1" xmlns="http://www.w3.org/2000/svg" xmlns:xlink="http://www.w3.org/1999/xlink">
<defs>
<symbol id="icon-ac_unit" viewBox="0 0 24 24">
<title>ac_unit</title>
<path d="M21.984 11.016v1.969h-4.172l3.234 3.234-1.406 1.453-4.641-4.688h-2.016v2.016l4.688 4.641-1.453 1.406-3.234-3.234v4.172h-1.969v-4.172l-3.234 3.234-1.453-1.406 4.688-4.641v-2.016h-2.016l-4.641 4.688-1.406-1.453 3.234-3.234h-4.172v-1.969h4.172l-3.234-3.234 1.406-1.453 4.641 4.688h2.016v-2.016l-4.688-4.641 1.453-1.406 3.234 3.234v-4.172h1.969v4.172l3.234-3.234 1.453 1.406-4.688 4.641v2.016h2.016l4.641-4.688 1.406 1.453-3.234 3.234h4.172z"></path>
</symbol>
<symbol id="icon-beach_access" viewBox="0 0 24 24">
<title>beach_access</title>
<path d="M17.438 8.813c-3.134-3.134-7.481-4.167-11.411-2.868 2.99-0.341 6.843 1.206 9.958 4.321l-5.719 5.719c-3.115-3.115-4.662-6.968-4.321-9.958-1.299 3.931-0.265 8.278 2.868 11.411l-2.859 2.859c-3.935-3.935-3.938-10.352-0.006-14.29 0.006-0.052 0.008-0.054 0.060-0.060 3.938-3.931 10.355-3.929 14.29 0.006zM13.125 14.578l1.453-1.453 6.422 6.469-1.453 1.406z"></path>
</symbol>
<symbol id="icon-camera" viewBox="0 0 24 24">
<title>camera</title>
<path d="M9.844 21.75c1.61-2.78 3.199-5.582 4.828-8.344l3.656 6.328c-1.734 1.406-3.938 2.25-6.328 2.25-0.75 0-1.453-0.094-2.156-0.234zM2.438 15h9.703l-3.703 6.328c-2.859-1.078-5.063-3.422-6-6.328zM4.641 5.25c1.687 2.922 3.365 5.853 5.063 8.766h-7.5c-0.141-0.656-0.188-1.313-0.188-2.016 0-2.625 0.984-4.969 2.625-6.75zM21.797 9.984c0.141 0.656 0.188 1.313 0.188 2.016 0 2.625-0.984 4.969-2.625 6.75l-4.781-8.25-0.281-0.516h7.5zM21.563 9h-9.703l3.703-6.328c2.859 1.078 5.063 3.422 6 6.328zM9.422 10.5l-0.094 0.094-3.656-6.328c1.734-1.406 3.938-2.25 6.328-2.25 0.75 0 1.453 0.094 2.156 0.234z"></path>
</symbol>
<symbol id="icon-flip_to_back" viewBox="0 0 24 24">
<title>flip_to_back</title>
<path d="M15 17.016v-2.016h2.016v2.016h-2.016zM15 5.016v-2.016h2.016v2.016h-2.016zM5.016 6.984v12h12v2.016h-12c-1.125 0-2.016-0.938-2.016-2.016v-12h2.016zM18.984 17.016v-2.016h2.016c0 1.078-0.938 2.016-2.016 2.016zM18.984 9v-2.016h2.016v2.016h-2.016zM18.984 12.984v-1.969h2.016v1.969h-2.016zM9 17.016c-1.125 0-2.016-0.938-2.016-2.016h2.016v2.016zM12.984 3v2.016h-1.969v-2.016h1.969zM18.984 3c1.078 0 2.016 0.938 2.016 2.016h-2.016v-2.016zM12.984 15v2.016h-1.969v-2.016h1.969zM9 3v2.016h-2.016c0-1.078 0.891-2.016 2.016-2.016zM9 11.016v1.969h-2.016v-1.969h2.016zM9 6.984v2.016h-2.016v-2.016h2.016z"></path>
</symbol>
</defs>
</svg>
